<svg width="16" height="16" fill="none" xmlns="http://www.w3.org/2000/svg"><path d="M8 1.438a57.11 57.11 0 00-2.11.023c-.322.016-.702.029-1.14.039a5.62 5.62 0 00-.93.11c-.224.051-.414.109-.57.171a2.107 2.107 0 00-.484.242 2.904 2.904 0 00-.758.758 2.502 2.502 0 00-.258.5 5.18 5.18 0 00-.156.555c-.052.224-.084.539-.094.945-.02.427-.036.802-.047 1.125-.01.323-.016 1.021-.016 2.094 0 1.083.008 1.786.024 2.11.016.322.029.703.039 1.14.02.396.057.706.11.93.051.224.109.414.171.57.063.177.143.338.242.484a2.904 2.904 0 00.758.758c.146.1.313.185.5.258.146.052.331.104.555.156.224.052.539.084.945.094.427.02.802.037 1.125.047.323.01 1.021.015 2.094.015 1.083 0 1.786-.007 2.11-.023a46.81 46.81 0 011.14-.039c.396-.02.706-.057.93-.11.224-.052.414-.109.57-.171.177-.063.338-.143.484-.242a2.909 2.909 0 00.758-.758c.1-.146.185-.313.258-.5.052-.146.104-.331.156-.555a4.97 4.97 0 00.094-.945c.02-.427.037-.802.047-1.125.01-.323.015-1.021.015-2.094 0-1.083-.007-1.786-.023-2.11a46.813 46.813 0 01-.039-1.14 5.616 5.616 0 00-.11-.93 4.005 4.005 0 00-.171-.57 2.113 2.113 0 00-.242-.484 2.909 2.909 0 00-.758-.758 2.504 2.504 0 00-.5-.258 5.189 5.189 0 00-.555-.156 4.973 4.973 0 00-.945-.094 69.37 69.37 0 00-1.125-.047A84.73 84.73 0 008 1.437zM8 0c1.094 0 1.81.008 2.148.023.339.016.717.03 1.133.04.438.02.807.06 1.11.117.302.057.578.133.828.226.27.115.523.245.758.39.234.147.46.329.68.548.218.218.403.448.554.687.151.24.279.49.383.75.094.24.172.513.234.82.063.308.1.68.11 1.118.02.427.036.807.046 1.14.01.334.016 1.047.016 2.141s-.008 1.81-.023 2.148c-.016.339-.03.717-.04 1.133-.02.438-.06.807-.117 1.11a5.036 5.036 0 01-.226.828c-.115.27-.245.523-.39.758-.147.234-.329.46-.548.68a3.961 3.961 0 01-.687.554c-.24.151-.49.279-.75.383a4.99 4.99 0 01-.82.234c-.308.063-.68.1-1.118.11-.427.02-.807.036-1.14.046A89.02 89.02 0 018 16c-1.094 0-1.81-.008-2.148-.023a53.446 53.446 0 00-1.133-.04 8.156 8.156 0 01-1.11-.117 5.032 5.032 0 01-.828-.226 5.449 5.449 0 01-.758-.39 3.814 3.814 0 01-.68-.548 3.966 3.966 0 01-.554-.687 4.625 4.625 0 01-.383-.75 4.985 4.985 0 01-.234-.82 6.476 6.476 0 01-.11-1.118c-.02-.427-.036-.807-.046-1.14A88.878 88.878 0 010 8c0-1.094.008-1.81.023-2.148.016-.339.03-.717.04-1.133.02-.438.06-.808.117-1.11.057-.302.133-.578.226-.828.115-.27.245-.523.39-.758.147-.234.329-.46.548-.68.218-.218.448-.403.687-.554.24-.151.49-.279.75-.383.24-.094.513-.172.82-.234.308-.063.68-.1 1.118-.11.427-.02.807-.036 1.14-.046C6.193.006 6.906 0 8 0zm0 3.875c.573 0 1.11.107 1.61.32a4.132 4.132 0 012.195 2.196c.213.5.32 1.036.32 1.609s-.107 1.11-.32 1.61a4.132 4.132 0 01-2.196 2.195c-.5.213-1.036.32-1.609.32s-1.11-.107-1.61-.32a4.133 4.133 0 01-2.195-2.196A4.054 4.054 0 013.875 8c0-.573.107-1.11.32-1.61a4.132 4.132 0 012.196-2.195c.5-.213 1.036-.32 1.609-.32zm0 6.813c.74 0 1.372-.266 1.898-.797.527-.532.79-1.162.79-1.891 0-.74-.266-1.372-.797-1.898-.532-.526-1.162-.79-1.891-.79-.74 0-1.372.266-1.898.797-.526.532-.79 1.162-.79 1.891 0 .74.266 1.372.797 1.898.532.527 1.162.79 1.891.79zm5.219-6.97c0 .261-.089.488-.266.68a.873.873 0 01-.672.29.943.943 0 01-.68-.282.923.923 0 01-.289-.687c0-.26.094-.482.282-.664a.949.949 0 01.687-.274c.26 0 .482.089.664.266a.897.897 0 01.274.672z" fill="#fff"></path></svg>