 <svg width="21" height="16" fill="none" xmlns="http://www.w3.org/2000/svg"><path d="M18.867 4v.5c0 1.333-.266 2.683-.8 4.048a11.415 11.415 0 01-2.358 3.702c-1.04 1.103-2.32 2.003-3.845 2.702C10.339 15.65 8.586 16 6.604 16c-.602 0-1.197-.039-1.785-.115a12.4 12.4 0 01-3.322-.914A11.667 11.667 0 010 14.192a12.448 12.448 0 001.025.039c.998 0 1.959-.148 2.882-.442A8.158 8.158 0 006.398 12.5c-.943 0-1.784-.266-2.522-.798-.738-.532-1.251-1.202-1.538-2.01.137.039.27.061.4.068.13.006.27.01.42.01a5.646 5.646 0 001.149-.116A4.292 4.292 0 011.846 8.25C1.189 7.506.86 6.654.86 5.692v-.077c.287.154.592.276.913.366.321.09.66.134 1.015.134a4.029 4.029 0 01-1.394-1.413A3.708 3.708 0 01.86 2.769c0-.359.055-.711.164-1.057.11-.347.26-.674.452-.981.52.615 1.107 1.173 1.763 1.673.656.5 1.36.933 2.113 1.298.752.365 1.548.657 2.389.875.84.218 1.705.346 2.594.385a3.677 3.677 0 01-.123-.924c0-.55.113-1.073.338-1.567.226-.493.534-.923.923-1.288A4.416 4.416 0 0114.52 0c.63 0 1.214.115 1.754.346.54.23 1.008.539 1.405.923.492-.09.97-.215 1.435-.375.465-.16.903-.356 1.313-.586-.164.461-.41.884-.738 1.269-.329.385-.711.705-1.149.961a10.2 10.2 0 001.251-.23c.41-.103.814-.244 1.21-.423a9.093 9.093 0 01-.974 1.134A9.64 9.64 0 0118.867 4z" fill="#fff"></path></svg>